{"title":"The I.T Crowd Season 1 - 4 Complete (MKV) - YIFY","uid":5740438,"size":2651068292,"categoryP":"video","categoryS":"tv_shows","magnet":"?xt=urn:btih:ded023c45ddf23af0449d1e86340d5dd1b89bb9e&amp;dn=The+I.T+Crowd+Season+1+-+4+Complete+%28MKV%29+-+YIFY&amp;tr=udp%3A%2F%2Ftracker.openbittorrent.com%3A80&amp;tr=udp%3A%2F%2Fopen.demonii.com%3A1337&amp;tr=udp%3A%2F%2Ftracker.coppersurfer.tk%3A6969&amp;tr=udp%3A%2F%2Fexodus.desync.com%3A6969","seeders":0,"leechers":0,"uploader":"YIFY","files":-1,"time":1281014904,"description":" &lt;a href=&quot;http://www.imdb.com/title/tt0487831/[Rating&quot; rel=&quot;nofollow&quot; target=&quot;_NEW&quot;&gt;http://www.imdb.com/title/tt0487831/[Rating&lt;/a&gt; 8.9]\n\n\nAll are HDTV episodes which have been converted to MKV compression to reduce size (Use VLC player for these) Perfect quality!\n\nGeneral\nFormat : Matroska\nFile size : 104 MiB\nDuration : 23mn 5s\nOverall bit rate : 631 Kbps\n\nVideo\nFormat/Info : Advanced Video Codec\nDuration : 23mn 5s\nBit rate : 492 Kbps\nWidth : 640 pixels\nHeight : 352 pixels\nDisplay aspect ratio : 16:9\nFrame rate : 25.000 fps\nResolution : 24 bits\nColorimetry : 4:2:0\nStream size : 81.2 MiB (78%)\n\nAudio\nFormat : MPEG Audio\nFormat profile : Layer 3\nNominal bit rate : 128 Kbps\nChannel(s) : 2 channels\nSampling rate : 48.0 KHz\nResolution : 16 bits\nStream size : 20.9 MiB (20%)\nLanguage : English\n\n\n\n\nSeed Comment and Enjoy","torrent":{"xt":"urn:btih:ded023c45ddf23af0449d1e86340d5dd1b89bb9e","amp;dn":"The+I.T+Crowd+Season+1+-+4+Complete+%28MKV%29+-+YIFY","amp;tr":["udp%3A%2F%2Ftracker.openbittorrent.com%3A80","udp%3A%2F%2Fopen.demonii.com%3A1337","udp%3A%2F%2Ftracker.coppersurfer.tk%3A6969","udp%3A%2F%2Fexodus.desync.com%3A6969"],"infoHash":"ded023c45ddf23af0449d1e86340d5dd1b89bb9e","infoHashBuffer":{"type":"Buffer","data":[222,208,35,196,93,223,35,175,4,73,209,232,99,64,213,221,27,137,187,158]},"announce":[],"urlList":[]}}